<svg viewBox="0 0 327 30" fill="none" xmlns="http://www.w3.org/2000/svg"><path fill="#7D7195" style="fill:#7d7195" d="M0 0h30v30H0z"/><path opacity=".25" d="M23.256 9.179c.572.572.572 1.5 0 2.072l-9.827 9.827c-.572.572-1.5.572-2.072 0L6.68 16.4a1.464 1.464 0 1 1 2.072-2.072l3.642 3.643 8.791-8.792a1.465 1.465 0 0 1 2.072 0Z" fill="#fff" style="fill:#fff"/><path fill="#7D7195" style="fill:#7d7195" d="M33 0h30v30H33z"/><path opacity=".25" d="M56.256 9.179c.572.572.572 1.5 0 2.072l-9.827 9.827c-.572.572-1.5.572-2.072 0L39.68 16.4a1.464 1.464 0 1 1 2.072-2.072l3.642 3.643 8.791-8.792a1.465 1.465 0 0 1 2.072 0Z" fill="#fff" style="fill:#fff"/><path fill="#7D7195" style="fill:#7d7195" d="M66 0h30v30H66z"/><path opacity=".25" d="M89.256 9.179c.572.572.572 1.5 0 2.072l-9.827 9.827c-.572.572-1.5.572-2.072 0L72.68 16.4a1.464 1.464 0 1 1 2.072-2.072l3.642 3.643 8.791-8.792a1.465 1.465 0 0 1 2.072 0Z" fill="#fff" style="fill:#fff"/><path fill="#7D7195" style="fill:#7d7195" d="M99 0h30v30H99z"/><path opacity=".25" d="M122.256 9.179c.572.572.572 1.5 0 2.072l-9.827 9.827c-.572.572-1.5.572-2.072 0l-4.678-4.678a1.465 1.465 0 1 1 2.072-2.072l3.642 3.643 8.791-8.792a1.466 1.466 0 0 1 2.072 0Z" fill="#fff" style="fill:#fff"/><path fill="#7D7195" style="fill:#7d7195" d="M132 0h30v30h-30z"/><path opacity=".25" d="M155.256 9.179c.572.572.572 1.5 0 2.072l-9.827 9.827c-.572.572-1.5.572-2.072 0l-4.678-4.678a1.465 1.465 0 1 1 2.072-2.072l3.642 3.643 8.791-8.792a1.466 1.466 0 0 1 2.072 0Z" fill="#fff" style="fill:#fff"/><path fill="#7D7195" style="fill:#7d7195" d="M165 0h30v30h-30z"/><path opacity=".25" d="M188.256 9.179c.572.572.572 1.5 0 2.072l-9.827 9.827c-.572.572-1.5.572-2.072 0l-4.678-4.678a1.465 1.465 0 1 1 2.072-2.072l3.642 3.643 8.791-8.792a1.466 1.466 0 0 1 2.072 0Z" fill="#fff" style="fill:#fff"/><path fill="#7D7195" style="fill:#7d7195" d="M198 0h30v30h-30z"/><path opacity=".25" d="M221.256 9.179c.572.572.572 1.5 0 2.072l-9.827 9.827c-.572.572-1.5.572-2.072 0l-4.678-4.678a1.465 1.465 0 1 1 2.072-2.072l3.642 3.643 8.791-8.792a1.466 1.466 0 0 1 2.072 0Z" fill="#fff" style="fill:#fff"/><path fill="#28D783" style="fill:#28d783" d="M231 0h30v30h-30zM264 0h30v30h-30zM297 0h30v30h-30z"/></svg>