<svg width="60" height="75" fill="none" xmlns="http://www.w3.org/2000/svg"><path d="M54.472 62.569V12.431a6.333 6.333 0 0 0 4.586-7.32A6.327 6.327 0 0 0 52.853 0H6.729c-.286 0-.524.001-.55.002A5.464 5.464 0 0 0 .826 5.495v64.01c0 2.958 2.405 5.422 5.365 5.494a104.5 104.5 0 0 0 .574.001h46.088a6.326 6.326 0 0 0 6.321-6.32 6.333 6.333 0 0 0-4.702-6.111ZM12.098 2.929h40.755a3.394 3.394 0 0 1 3.392 3.391 3.395 3.395 0 0 1-3.392 3.391H12.098a6.28 6.28 0 0 0 .989-3.39c0-1.247-.363-2.41-.99-3.391Zm44.084 66.403a3.393 3.393 0 0 1-3.33 2.738H12.099c.625-.98.989-2.144.989-3.39 0-1.247-.364-2.411-.99-3.391h21.837a1.465 1.465 0 0 0 0-2.93H6.766a1.465 1.465 0 0 0 0 2.93 3.396 3.396 0 0 1 3.391 3.39c0 1.87-1.522 3.391-3.392 3.391l-.053.001H6.66l-.401-.001a2.58 2.58 0 0 1-2.503-2.565V5.495A2.581 2.581 0 0 1 6.243 2.93h.571a3.396 3.396 0 0 1 3.343 3.39c0 1.869-1.522 3.39-3.392 3.39a1.465 1.465 0 0 0 0 2.93h44.777V62.36h-4.218a1.465 1.465 0 0 0 0 2.93h5.529a3.396 3.396 0 0 1 3.329 4.043Z" fill="url(#a)"/><path d="M42.028 63.264a1.473 1.473 0 0 0-1.425-.902 1.48 1.48 0 0 0-1.314.99 1.479 1.479 0 0 0 .476 1.618c.479.381 1.164.42 1.684.098.6-.373.85-1.152.579-1.804Z" fill="url(#b)"/><path d="M28.535 46.196c8.117 0 14.72-6.604 14.72-14.72 0-8.117-6.603-14.72-14.72-14.72s-14.72 6.603-14.72 14.72c0 8.116 6.603 14.72 14.72 14.72Zm0-26.51c6.501 0 11.79 5.288 11.79 11.79 0 6.5-5.289 11.79-11.79 11.79-6.501 0-11.79-5.29-11.79-11.79 0-6.502 5.289-11.79 11.79-11.79Z" fill="url(#c)"/><path d="m23.358 33.799-.177 3.63a1.464 1.464 0 0 0 1.986 1.44l3.368-1.288 3.368 1.287a1.462 1.462 0 0 0 1.383-.182c.4-.29.627-.763.603-1.257l-.176-3.63 2.262-2.831a1.465 1.465 0 0 0-.758-2.328l-3.479-.95-1.975-3.037a1.465 1.465 0 0 0-2.456 0l-1.975 3.037-3.48.95a1.466 1.466 0 0 0-.757 2.328l2.263 2.83Zm3.284-3.43c.347-.095.646-.314.842-.615l1.051-1.616 1.051 1.616c.196.302.496.52.842.615l1.868.51-1.217 1.523c-.223.279-.337.63-.32.986l.095 1.943-1.796-.687a1.465 1.465 0 0 0-1.046 0l-1.796.687.095-1.943a1.464 1.464 0 0 0-.319-.986l-1.217-1.523 1.867-.51Z" fill="url(#d)"/><path d="M42.163 51.97H15.28a1.465 1.465 0 0 0 0 2.93h26.883a1.465 1.465 0 0 0 0-2.93Z" fill="url(#e)"/><defs><linearGradient id="a" x1="-10.08" y1="120.213" x2="86.515" y2="110.58" gradientUnits="userSpaceOnUse"><stop stop-color="#FA70AA"/><stop offset="1" stop-color="#40BAFE"/></linearGradient><linearGradient id="b" x1="38.666" y1="67.049" x2="43.477" y2="66.433" gradientUnits="userSpaceOnUse"><stop stop-color="#FA70AA"/><stop offset="1" stop-color="#40BAFE"/></linearGradient><linearGradient id="c" x1="8.313" y1="63.943" x2="56.739" y2="57.736" gradientUnits="userSpaceOnUse"><stop stop-color="#FA70AA"/><stop offset="1" stop-color="#40BAFE"/></linearGradient><linearGradient id="d" x1="17.873" y1="47.994" x2="43.375" y2="44.606" gradientUnits="userSpaceOnUse"><stop stop-color="#FA70AA"/><stop offset="1" stop-color="#40BAFE"/></linearGradient><linearGradient id="e" x1="8.243" y1="56.666" x2="26.693" y2="32.599" gradientUnits="userSpaceOnUse"><stop stop-color="#FA70AA"/><stop offset="1" stop-color="#40BAFE"/></linearGradient></defs></svg>