<svg width="76" height="75" fill="none" xmlns="http://www.w3.org/2000/svg"><g clip-path="url(#a)"><path d="M13.2 35.11C6.197 35.11.5 40.809.5 47.81c0 7.003 5.697 12.7 12.7 12.7 7.003 0 12.7-5.697 12.7-12.7 0-7.002-5.697-12.7-12.7-12.7Zm0 22.47c-5.387 0-9.77-4.382-9.77-9.77 0-5.387 4.383-9.77 9.77-9.77s9.77 4.383 9.77 9.77c0 5.388-4.383 9.77-9.77 9.77Z" fill="url(#b)"/><path d="M69.547 57.839h-.882a28.77 28.77 0 0 0 5.524-16.97c0-6.618-2.305-13.089-6.49-18.221-4.035-4.947-9.632-8.45-15.8-9.895a7.55 7.55 0 0 0-4.914-3.07V6.72c0-.81-.655-1.465-1.465-1.465H28.03c-.81 0-1.465.656-1.465 1.465v19.926H23.94c-.81 0-1.465.655-1.465 1.465v6.086c0 .81.655 1.465 1.465 1.465h6.495v4.594c0 .809.655 1.464 1.465 1.464h9.749c.808 0 1.464-.655 1.464-1.464v-4.594h6.495c.81 0 1.465-.656 1.465-1.465v-6.087c0-.809-.656-1.464-1.465-1.464h-2.624v-2.085a7.51 7.51 0 0 0 3.512-1.58A18.602 18.602 0 0 1 63.935 40.87c0 7.32-4.29 13.947-10.955 16.969h-6.936v-2.117a3.947 3.947 0 0 0-3.942-3.942H31.448a3.947 3.947 0 0 0-3.942 3.942v2.45a5.963 5.963 0 0 0-3.99 5.62 5.96 5.96 0 0 0 5.954 5.952h13.417a1.465 1.465 0 0 0 0-2.93H29.47a3.027 3.027 0 0 1-3.023-3.023 3.027 3.027 0 0 1 3.023-3.023h40.078a3.027 3.027 0 0 1 3.023 3.023 3.027 3.027 0 0 1-3.023 3.023H56.13a1.465 1.465 0 0 0 0 2.93h13.416a5.96 5.96 0 0 0 5.953-5.953 5.96 5.96 0 0 0-5.953-5.952ZM50.369 17.122a4.615 4.615 0 0 1-4.61 4.61 4.615 4.615 0 0 1-4.61-4.61 4.615 4.615 0 0 1 4.61-4.61 4.615 4.615 0 0 1 4.61 4.61Zm-10.184 21.67h-6.82v-3.129h6.82v3.129Zm7.96-6.059h-22.74v-3.157h22.74v3.157Zm-18.65-6.086V8.185h14.56v1.592c-3.339.774-5.835 3.773-5.835 7.345 0 3.572 2.496 6.571 5.836 7.345v2.18H29.495Zm.94 31.192v-2.117c0-.558.455-1.012 1.014-1.012h10.653c.558 0 1.013.454 1.013 1.012v2.117h-12.68Zm28.16 0a21.549 21.549 0 0 0 8.27-16.97c0-4.89-1.603-9.503-4.636-13.34a21.749 21.749 0 0 0-9.753-6.985 7.494 7.494 0 0 0 .762-4.382C63.814 19.57 71.26 29.592 71.26 40.87c0 6.249-2.245 12.25-6.335 16.969h-6.33Z" fill="url(#c)"/><path d="M50.89 67.72a1.477 1.477 0 0 0-1.432-.903 1.477 1.477 0 0 0-1.323 1.038 1.478 1.478 0 0 0 .51 1.587 1.48 1.48 0 0 0 1.705.056 1.479 1.479 0 0 0 .54-1.778Z" fill="url(#d)"/><path d="M16.699 44.8a1.465 1.465 0 0 0-2.046.329l-2.09 2.886-.991-.947a1.465 1.465 0 1 0-2.023 2.119l2.206 2.106a1.464 1.464 0 0 0 2.198-.2l3.073-4.247a1.465 1.465 0 0 0-.327-2.045Z" fill="url(#e)"/></g><defs><linearGradient id="b" x1="-4.247" y1="75.823" x2="37.534" y2="70.467" gradientUnits="userSpaceOnUse"><stop stop-color="#FA70AA"/><stop offset="1" stop-color="#40BAFE"/></linearGradient><linearGradient id="c" x1="12.565" y1="108.62" x2="100.245" y2="99.379" gradientUnits="userSpaceOnUse"><stop stop-color="#FA70AA"/><stop offset="1" stop-color="#40BAFE"/></linearGradient><linearGradient id="d" x1="47.527" y1="71.504" x2="52.338" y2="70.888" gradientUnits="userSpaceOnUse"><stop stop-color="#FA70AA"/><stop offset="1" stop-color="#40BAFE"/></linearGradient><linearGradient id="e" x1="7.561" y1="56.024" x2="20.998" y2="54.054" gradientUnits="userSpaceOnUse"><stop stop-color="#FA70AA"/><stop offset="1" stop-color="#40BAFE"/></linearGradient><clipPath id="a"><path fill="#fff" transform="translate(.5)" d="M0 0h75v75H0z"/></clipPath></defs></svg>