<svg width="76" height="75" fill="none" xmlns="http://www.w3.org/2000/svg"><path d="M62.156 2.053H47.455A3.83 3.83 0 0 0 44.065 0h-12.13a3.83 3.83 0 0 0-3.39 2.053h-14.7A5.86 5.86 0 0 0 7.99 7.907v61.239A5.86 5.86 0 0 0 13.844 75h48.312a5.86 5.86 0 0 0 5.854-5.854V7.906a5.86 5.86 0 0 0-5.854-5.853ZM31.039 3.827c0-.495.402-.897.897-.897h12.129c.494 0 .896.402.896.897v4.657H31.04V3.827ZM65.08 69.146a2.928 2.928 0 0 1-2.924 2.924H13.844a2.928 2.928 0 0 1-2.924-2.924V7.906a2.928 2.928 0 0 1 2.924-2.923H28.11v3.5H15.885c-.809 0-1.464.657-1.464 1.466v57.155c0 .809.655 1.465 1.464 1.465h44.23c.809 0 1.465-.656 1.465-1.465V45.626a1.465 1.465 0 0 0-2.93 0v20.013h-41.3V11.414h41.3v20.968a1.465 1.465 0 1 0 2.93 0V9.949c0-.81-.656-1.465-1.465-1.465H47.89V4.983h14.265a2.928 2.928 0 0 1 2.924 2.924v61.239Z" fill="url(#a)"/><path d="M61.467 38.47a1.476 1.476 0 0 0-1.426-.9 1.48 1.48 0 0 0-1.313.99c-.199.585 0 1.25.49 1.628.48.371 1.154.405 1.67.086.604-.374.847-1.15.579-1.804Z" fill="url(#b)"/><path d="M29.236 20.156c-4.621 0-8.38 3.76-8.38 8.38 0 4.621 3.759 8.38 8.38 8.38 4.62 0 8.38-3.759 8.38-8.38 0-4.62-3.76-8.38-8.38-8.38Zm0 13.831a5.457 5.457 0 0 1-5.451-5.45 5.457 5.457 0 0 1 5.45-5.452 5.457 5.457 0 0 1 5.452 5.451 5.457 5.457 0 0 1-5.451 5.451Z" fill="url(#c)"/><path d="m29.613 26.82-.78.767a1.466 1.466 0 0 0-1.706 2.35l.748.714c.284.27.648.405 1.012.405.371 0 .743-.14 1.028-.421l1.754-1.729a1.465 1.465 0 0 0-2.056-2.087Z" fill="url(#d)"/><path d="M53.68 21.835H42.235a1.465 1.465 0 1 0 0 2.93H53.68a1.465 1.465 0 0 0 0-2.93Z" fill="url(#e)"/><path d="M42.235 31.056h8.303a1.465 1.465 0 1 0 0-2.93h-8.303a1.465 1.465 0 1 0 0 2.93Z" fill="url(#f)"/><path d="M29.236 43.03c-4.621 0-8.38 3.76-8.38 8.38 0 4.621 3.759 8.38 8.38 8.38 4.62 0 8.38-3.759 8.38-8.38 0-4.62-3.76-8.38-8.38-8.38Zm0 13.831a5.457 5.457 0 0 1-5.451-5.45 5.457 5.457 0 0 1 5.45-5.451 5.457 5.457 0 0 1 5.452 5.45 5.457 5.457 0 0 1-5.451 5.451Z" fill="url(#g)"/><path d="m29.613 49.694-.78.768a1.466 1.466 0 0 0-1.706 2.35l.748.713a1.46 1.46 0 0 0 2.04-.016l1.754-1.728a1.465 1.465 0 0 0-2.056-2.087Z" fill="url(#h)"/><path d="M53.68 44.71H42.235a1.465 1.465 0 1 0 0 2.93H53.68a1.465 1.465 0 1 0 0-2.93Z" fill="url(#i)"/><path d="M50.538 51.001h-8.303a1.465 1.465 0 1 0 0 2.93h8.303a1.465 1.465 0 1 0 0-2.93Z" fill="url(#j)"/><defs><linearGradient id="a" x1="-3.228" y1="120.213" x2="96.077" y2="110.026" gradientUnits="userSpaceOnUse"><stop stop-color="#FA70AA"/><stop offset="1" stop-color="#40BAFE"/></linearGradient><linearGradient id="b" x1="58.105" y1="42.255" x2="62.914" y2="41.639" gradientUnits="userSpaceOnUse"><stop stop-color="#FA70AA"/><stop offset="1" stop-color="#40BAFE"/></linearGradient><linearGradient id="c" x1="17.723" y1="47.021" x2="45.293" y2="43.486" gradientUnits="userSpaceOnUse"><stop stop-color="#FA70AA"/><stop offset="1" stop-color="#40BAFE"/></linearGradient><linearGradient id="d" x1="25.659" y1="33.864" x2="34.542" y2="32.536" gradientUnits="userSpaceOnUse"><stop stop-color="#FA70AA"/><stop offset="1" stop-color="#40BAFE"/></linearGradient><linearGradient id="e" x1="38.084" y1="26.531" x2="55.305" y2="15.7" gradientUnits="userSpaceOnUse"><stop stop-color="#FA70AA"/><stop offset="1" stop-color="#40BAFE"/></linearGradient><linearGradient id="f" x1="38.671" y1="32.822" x2="53.797" y2="25.388" gradientUnits="userSpaceOnUse"><stop stop-color="#FA70AA"/><stop offset="1" stop-color="#40BAFE"/></linearGradient><linearGradient id="g" x1="17.723" y1="69.895" x2="45.293" y2="66.361" gradientUnits="userSpaceOnUse"><stop stop-color="#FA70AA"/><stop offset="1" stop-color="#40BAFE"/></linearGradient><linearGradient id="h" x1="25.659" y1="56.739" x2="34.542" y2="55.411" gradientUnits="userSpaceOnUse"><stop stop-color="#FA70AA"/><stop offset="1" stop-color="#40BAFE"/></linearGradient><linearGradient id="i" x1="38.084" y1="49.406" x2="55.305" y2="38.575" gradientUnits="userSpaceOnUse"><stop stop-color="#FA70AA"/><stop offset="1" stop-color="#40BAFE"/></linearGradient><linearGradient id="j" x1="38.671" y1="55.697" x2="53.797" y2="48.262" gradientUnits="userSpaceOnUse"><stop stop-color="#FA70AA"/><stop offset="1" stop-color="#40BAFE"/></linearGradient></defs></svg>