<svg width="120" height="50" fill="none" xmlns="http://www.w3.org/2000/svg"><path d="M23.668 0h7.582L18.542 34.153h-5.763L0 0h7.7l7.984 22.34L23.668 0ZM48.28 12.408 40.769 0h-8.763l12.59 19.72v14.433h7.203V19.72L64.13 0h-8.361L48.28 12.408Zm32.336 9.932L72.633 0h-7.7L77.71 34.153h5.763L96.182 0H88.6l-7.984 22.34Zm39.257-15.41V0H99.135v34.153h20.738v-6.93h-13.582v-7.217h12.094v-6.93h-12.094V6.93h13.582Z" fill="url(#a)"/><path d="M25.197 44.568h.917l-1.75 5.31h-.722l-1.24-3.839-1.235 3.839h-.73l-1.764-5.31h.939l1.2 3.85 1.239-3.85h.73l1.217 3.85 1.2-3.85ZM33.074 44.575h3.102v.85h-2.222v1.25h1.98v.847h-1.98v1.509h2.222v.847h-3.102v-5.303ZM43.378 44.575h.88v4.456h2.516v.847h-3.396v-5.303ZM53.862 44.575h.88v4.456h2.516v.847h-3.396v-5.303ZM64.346 44.575h.766l2.487 3.59v-3.59h.887v5.303h-.759l-2.501-3.59v3.59h-.88v-5.303ZM75.828 44.575h3.102v.85h-2.223v1.25h1.98v.847h-1.98v1.509h2.223v.847h-3.103v-5.303ZM87.936 49.952c-.565 0-1.032-.168-1.4-.505-.37-.336-.555-.763-.555-1.281h.873c0 .284.101.513.303.69.201.176.461.264.779.264.298 0 .542-.07.73-.209a.645.645 0 0 0 .282-.542.557.557 0 0 0-.099-.329.73.73 0 0 0-.266-.227 2.254 2.254 0 0 0-.385-.154 11.69 11.69 0 0 0-.458-.129c-.16-.042-.32-.086-.48-.133a2.456 2.456 0 0 1-.459-.185 1.836 1.836 0 0 1-.385-.266c-.111-.101-.2-.233-.266-.394a1.454 1.454 0 0 1-.099-.553c0-.436.167-.795.502-1.076.335-.28.76-.422 1.277-.422.293 0 .558.045.794.134.236.088.427.21.576.364.147.154.26.33.339.529.078.198.117.41.117.638h-.902a.792.792 0 0 0-.271-.594c-.174-.154-.401-.231-.683-.231-.266 0-.48.06-.643.18a.558.558 0 0 0-.244.47c0 .12.033.22.099.306a.703.703 0 0 0 .267.205c.113.052.242.099.387.14.146.042.299.083.459.123.16.04.321.083.482.131.162.048.315.112.46.192.146.08.275.174.387.281.113.108.202.246.268.416.066.17.099.365.099.584 0 .301-.081.572-.244.814-.162.241-.387.43-.675.566a2.24 2.24 0 0 1-.966.203ZM98.787 49.952c-.565 0-1.032-.168-1.401-.505-.37-.336-.554-.763-.554-1.281h.873c0 .284.1.513.302.69.202.176.462.264.78.264.298 0 .541-.07.73-.209a.645.645 0 0 0 .282-.542.557.557 0 0 0-.1-.329.733.733 0 0 0-.265-.227 2.266 2.266 0 0 0-.385-.154 11.629 11.629 0 0 0-.459-.129c-.16-.042-.32-.086-.48-.133a2.453 2.453 0 0 1-.458-.185 1.838 1.838 0 0 1-.386-.266c-.11-.101-.2-.233-.266-.394a1.45 1.45 0 0 1-.098-.553c0-.436.167-.795.502-1.076.335-.28.76-.422 1.276-.422.293 0 .558.045.794.134.236.088.428.21.576.364.148.154.261.33.339.529.078.198.117.41.117.638h-.901a.793.793 0 0 0-.272-.594c-.174-.154-.4-.231-.682-.231-.266 0-.481.06-.644.18a.558.558 0 0 0-.244.47c0 .12.033.22.1.306a.702.702 0 0 0 .267.205c.113.052.242.099.387.14.146.042.298.083.459.123.16.04.32.083.482.131.161.048.314.112.46.192.146.08.274.174.387.281.112.108.202.246.268.416.066.17.099.365.099.584 0 .301-.082.572-.244.814-.163.241-.388.43-.675.566a2.24 2.24 0 0 1-.966.203Z" fill="#47525E"/><defs><linearGradient id="a" x1="-22.405" y1="54.741" x2="144.275" y2="-20.253" gradientUnits="userSpaceOnUse"><stop stop-color="#FA70AA"/><stop offset="1" stop-color="#40BAFE"/></linearGradient></defs></svg>